<svg width="258" height="35" viewBox="0 0 258 35" fill="none" xmlns="http://www.w3.org/2000/svg">
<g clip-path="url(#clip0_1_557)">
<path d="M73.3114 34.2816V15.9454C73.3617 9.84843 69.3093 5.59961 63.0973 5.59961C59.2966 5.59961 56.3215 6.98073 54.474 10.3105H54.1166C52.5258 7.49299 49.5457 5.59961 45.5436 5.59961C41.5415 5.59961 38.8684 7.64868 37.6401 10.0041H37.2827V6.36299L31.7402 7.19166V34.3319H37.3884V17.7886C37.3884 13.6402 40.1622 10.8227 43.7011 10.8227C47.2401 10.8227 49.7571 13.2836 49.7571 17.1759V34.2816H55.4053V17.9443C55.4053 13.4393 58.2294 10.8227 61.7734 10.8227C65.3173 10.8227 67.6783 13.2836 67.6783 17.8388V34.2816H73.3265H73.3114Z" fill="#0080C9"/>
<path d="M120.132 34.2816V15.9454C120.132 9.84843 116.074 5.59961 109.918 5.59961C106.117 5.59961 103.142 6.98073 101.294 10.3105H100.937C99.3461 7.49299 96.366 5.59961 92.3639 5.59961C88.3618 5.59961 85.6888 7.64868 84.4605 10.0041H84.103V6.32281L78.5605 7.15148V34.3319H84.2087V17.7886C84.2087 13.6402 86.9825 10.8227 90.5215 10.8227C94.0604 10.8227 96.5774 13.2836 96.5774 17.1759V34.2816H102.226V17.9443C102.226 13.4393 105.05 10.8227 108.594 10.8227C112.138 10.8227 114.499 13.2836 114.499 17.8388V34.2816H120.147H120.132Z" fill="#0080C9"/>
<path d="M14.0148 5.59961C6.00562 5.59961 0 11.4907 0 20.3499C0 28.7521 5.69854 34.9998 14.1205 34.9998C21.0524 34.9998 26.0311 31.2582 27.4708 25.8292L21.5659 26.7533C20.1815 28.9581 17.4581 30.2889 14.2766 30.2889C9.60496 30.2889 6.47379 27.5217 5.75392 23.3733L27.7275 20.0938V20.0436C27.7779 12.003 22.7992 5.59961 14.0198 5.59961M5.70358 18.3511C5.75392 17.9393 5.75392 17.7384 5.75392 17.7384C6.16671 13.3339 9.70564 10.3105 14.0198 10.3105C17.7652 10.3105 20.846 12.3595 21.8729 15.9454L5.69854 18.3511H5.70358Z" fill="#0080C9"/>
<path d="M125.268 34.2811H130.916V10.3652L125.268 11.1839V34.2811Z" fill="#0080C9"/>
<path d="M124.694 2.30982C125.484 0.401372 127.679 -0.502631 129.592 0.285861C131.505 1.07435 132.411 3.26405 131.621 5.1725C130.83 7.08095 128.635 7.98496 126.722 7.19646C124.81 6.40797 123.903 4.21828 124.694 2.30982Z" fill="#0080C9"/>
<path d="M138.129 3.87633V2.14868H139.055C139.639 2.14868 140.037 2.47513 140.037 2.98238C140.037 3.48962 139.674 3.87131 139.055 3.87131H138.129V3.87633ZM137.746 5.72954H138.129V4.22287H139.242L140.133 5.72954H140.535L139.604 4.13247C140.077 3.98682 140.44 3.58504 140.44 2.96731C140.44 2.29433 139.931 1.80717 139.075 1.80717H137.746V5.72954ZM138.95 7.11066C136.855 7.11066 135.562 5.60399 135.562 3.77087C135.562 1.93775 136.855 0.426055 138.914 0.426055C140.973 0.426055 142.337 1.93273 142.337 3.75078C142.337 5.56883 141.064 7.11066 138.95 7.11066ZM138.95 7.45719C141.26 7.45719 142.7 5.78479 142.7 3.75078C142.7 1.71677 141.245 0.0644531 138.914 0.0644531C136.584 0.0644531 135.199 1.69668 135.199 3.77087C135.199 5.84505 136.674 7.45719 138.95 7.45719Z" fill="#0080C9"/>
<path d="M247.308 34.3373H248.622V5.9365H257.995V4.70605H237.884V5.9365H247.303V34.3373H247.308ZM208.707 34.3373H209.98V6.74006H210.232L227.755 34.3373H229.452V4.71108H228.138V32.3083H227.881L210.403 4.71108H208.707V34.3373ZM183.949 34.3373H199.731V33.152H185.223V19.818H197.697V18.6327H185.223V5.9365H199.605V4.70605H183.949V34.3323V34.3373ZM153.141 33.152V5.89633H159.378C167.438 5.89633 172.955 11.5263 172.955 19.5267C172.955 27.5271 167.397 33.1571 159.378 33.1571H153.141V33.152ZM151.867 34.3373H159.378C168.288 34.3373 174.269 28.3257 174.269 19.5217C174.269 10.7177 168.243 4.70605 159.378 4.70605H151.867V34.3323V34.3373Z" fill="#0080C9"/>
</g>
<defs>
<clipPath id="clip0_1_557">
<rect width="258" height="35" fill="white"/>
</clipPath>
</defs>
</svg>
