<?xml version="1.0" encoding="UTF-8"?>
<svg width="200" height="162.29543178624638" viewBox="0 0 200 162.29543178624638" class="css-1j8o68f">
  <defs id="SvgjsDefs4852">
    <linearGradient id="SvgjsLinearGradient4857">
      <stop id="SvgjsStop4858" stop-color="#8f5e25" offset="0"></stop>
      <stop id="SvgjsStop4859" stop-color="#fbf4a1" offset="0.5"></stop>
      <stop id="SvgjsStop4860" stop-color="#8f5e25" offset="1"></stop>
    </linearGradient>
    <linearGradient id="SvgjsLinearGradient4861">
      <stop id="SvgjsStop4862" stop-color="#8f5e25" offset="0"></stop>
      <stop id="SvgjsStop4863" stop-color="#fbf4a1" offset="0.5"></stop>
      <stop id="SvgjsStop4864" stop-color="#8f5e25" offset="1"></stop>
    </linearGradient>
  </defs>
  <g id="SvgjsG4853" transform="matrix(1.428511174466322,0,0,1.428511174466322,28.576547445693805,-14.285196209397123)" fill="url(#SvgjsLinearGradient4857)">
    <rect xmlns="http://www.w3.org/2000/svg" x="25.249" y="20.252" transform="matrix(0.7071 0.7071 -0.7071 0.7071 46.463 -22.1737)" fill="none" stroke="url(#SvgjsLinearGradient4857)" stroke-width="2" stroke-linecap="round" stroke-linejoin="round" stroke-miterlimit="10" width="49.499" height="49.497"></rect>
    <path xmlns="http://www.w3.org/2000/svg" stroke="url(#SvgjsLinearGradient4857)" stroke-width="2" stroke-linecap="round" stroke-linejoin="round" stroke-miterlimit="10" d="M49.999,69.395  l24.394-24.392L50,20.608L25.608,45.002L49.999,69.395z M63.785,45.002L49.999,58.787L36.214,45.002L50,31.215L63.785,45.002z"></path>
    <rect xmlns="http://www.w3.org/2000/svg" x="47.754" y="42.754" transform="matrix(-0.707 0.7072 -0.7072 -0.707 117.1804 41.4576)" stroke="url(#SvgjsLinearGradient4857)" stroke-width="2" stroke-linecap="round" stroke-linejoin="round" stroke-miterlimit="10" width="4.496" height="4.497"></rect>
    <polygon xmlns="http://www.w3.org/2000/svg" stroke="url(#SvgjsLinearGradient4857)" stroke-width="2" stroke-linecap="round" stroke-linejoin="round" stroke-miterlimit="10" points="  49.999,80 20,50.004 15.002,55 49.999,90 85,55 80,50 "></polygon>
  </g>
  <g id="SvgjsG4854" transform="matrix(0.9507872292225477,0,0,0.9507872292225477,-2.2818885340668897,123.7315004632723)" fill="url(#SvgjsLinearGradient4861)">
    <path d="M20.4 12 l6.64 0 l0 28 l-5.4 0 l-12.6 -16.04 l0 16.04 l-6.64 0 l0 -28 l5.4 0 l12.6 16.04 l0 -16.04 z M39.874 40.56 c-6.36 0 -10.96 -4.64 -10.96 -10.76 s4.6 -10.76 10.96 -10.76 s10.96 4.64 10.96 10.76 s-4.6 10.76 -10.96 10.76 z M39.874 34.8 c2.92 0 4.76 -2.12 4.76 -5 s-1.84 -5 -4.76 -5 s-4.76 2.12 -4.76 5 s1.84 5 4.76 5 z M77.388 19.04 c4.84 0 8.12 3.12 8.12 8.92 l0 12.04 l-6.4 0 l0 -10.6 c0 -2.68 -0.84 -4.44 -3.24 -4.44 c-2.52 0 -3.56 1.8 -3.56 4.92 l0 10.12 l-6.4 0 l0 -10.6 c0 -2.68 -0.84 -4.44 -3.24 -4.44 c-2.52 0 -3.56 1.8 -3.56 4.92 l0 10.12 l-6.4 0 l0 -20.4 l6.4 0 l0 2 c1.28 -1.48 3.2 -2.56 5.64 -2.56 c2.76 0 4.72 1 5.92 2.72 c1.4 -1.48 3.6 -2.72 6.72 -2.72 z M97.102 40.56 c-5.52 0 -9.92 -4.56 -9.92 -10.76 s4.4 -10.76 9.92 -10.76 c2.52 0 4.48 0.92 5.88 2.44 l0 -1.88 l6.4 0 l0 20.4 l-6.4 0 l0 -1.88 c-1.4 1.48 -3.36 2.44 -5.88 2.44 z M98.262 34.88 c2.76 0 4.88 -2.04 4.88 -5.12 c0 -3.04 -2.12 -5.04 -4.88 -5.04 s-4.76 2 -4.76 5.04 c0 3.08 2 5.12 4.76 5.12 z M127.056 10.8 l6.4 0 l0 29.2 l-6.4 0 l0 -1.88 c-1.4 1.48 -3.36 2.44 -5.88 2.44 c-5.52 0 -9.92 -4.56 -9.92 -10.76 s4.4 -10.76 9.92 -10.76 c2.52 0 4.48 0.92 5.88 2.44 l0 -10.68 z M122.336 34.88 c2.76 0 4.88 -2.04 4.88 -5.12 c0 -3.04 -2.12 -5.04 -4.88 -5.04 s-4.76 2 -4.76 5.04 c0 3.08 2 5.12 4.76 5.12 z M156.684 19.04 c5.52 0 9.92 4.56 9.92 10.76 s-4.4 10.76 -9.92 10.76 c-2.52 0 -4.48 -0.96 -5.88 -2.44 l0 1.88 l-6.4 0 l0 -29.2 l6.4 0 l0 10.68 c1.4 -1.52 3.36 -2.44 5.88 -2.44 z M155.524 34.88 c2.76 0 4.76 -2.04 4.76 -5.12 c0 -3.04 -2 -5.04 -4.76 -5.04 s-4.88 2 -4.88 5.04 c0 3.08 2.12 5.12 4.88 5.12 z M177.198 40.56 c-5.52 0 -9.92 -4.56 -9.92 -10.76 s4.4 -10.76 9.92 -10.76 c2.52 0 4.48 0.92 5.88 2.44 l0 -1.88 l6.4 0 l0 20.4 l-6.4 0 l0 -1.88 c-1.4 1.48 -3.36 2.44 -5.88 2.44 z M178.358 34.88 c2.76 0 4.88 -2.04 4.88 -5.12 c0 -3.04 -2.12 -5.04 -4.88 -5.04 s-4.76 2 -4.76 5.04 c0 3.08 2 5.12 4.76 5.12 z M206.352 19.6 l6.4 0 l0 20.4 l-6.4 0 l0 -2.12 c-1.36 1.56 -3.4 2.68 -6.04 2.68 c-5.44 0 -7.96 -3.68 -7.96 -9.08 l0 -11.88 l6.4 0 l0 10.6 c0 2.68 1.12 4.44 3.64 4.44 c2.48 0 3.96 -1.96 3.96 -5.08 l0 -9.96 z"></path>
  </g>
</svg>
